# xmcd CD database file
#
# Track frame offsets:
#	150
#	19396
#	33476
#	58830
#	78460
#	90189
#	107714
#	124995
#	141498
#	155739
#
# Disc length: 2268 seconds
#
# Revision: 0
# Processed by: cddbd v1.4PL0 Copyright (c) Steve Scherf et al.
# Submitted via: CDex 1.50
#
DISCID=8908da0a
DTITLE=The Nightshift Blues Band - Kids are Jumpin'
DYEAR=1999
DGENRE=Blues
TTITLE0=Slip it in
TTITLE1=Kids are Jumpin'
TTITLE2=Tore Me Out
TTITLE3=Blues for Billy C
TTITLE4=Price that I Pay
TTITLE5=Natural Man
TTITLE6=Blood From Stone
TTITLE7=Roll Me Baby
TTITLE8=Eye to EYe
TTITLE9=He Can't Love You
EXTD=YEAR: 1999
EXTT0=
EXTT1=
EXTT2=
EXTT3=
EXTT4=
EXTT5=
EXTT6=
EXTT7=
EXTT8=
EXTT9=
PLAYORDER=
